<?xml version="1.0" encoding="utf-8"?>
<!-- Generator: Adobe Illustrator 16.0.0, SVG Export Plug-In . SVG Version: 6.00 Build 0)  -->
<!DOCTYPE svg PUBLIC "-//W3C//DTD SVG 1.1//EN" "http://www.w3.org/Graphics/SVG/1.1/DTD/svg11.dtd">
<svg version="1.1" id="Capa_1" xmlns="http://www.w3.org/2000/svg" xmlns:xlink="http://www.w3.org/1999/xlink" x="0px" y="0px"
	 width="27px" height="27px" viewBox="0 0 27 27" enable-background="new 0 0 27 27" xml:space="preserve">
<g opacity="0.9">
	<path fill="#323232" d="M26.335,25.229l-6.349-6.349c1.703-1.958,2.733-4.512,2.733-7.304c0-6.146-4.999-11.139-11.139-11.139
		c-6.146,0-11.14,4.999-11.14,11.139s4.999,11.14,11.14,11.14c2.791,0,5.346-1.032,7.304-2.734l6.349,6.349
		c0.15,0.15,0.354,0.231,0.552,0.231c0.196,0,0.398-0.076,0.55-0.231C26.635,26.029,26.635,25.531,26.335,25.229z M2,11.577
		c0-5.283,4.298-9.575,9.575-9.575c5.283,0,9.576,4.298,9.576,9.575c0,5.278-4.293,9.581-9.576,9.581C6.298,21.157,2,16.86,2,11.577
		z"/>
</g>
</svg>
